# AST/ASF file generated using VICON BodyLanguage
# -----------------------------------------------
:version 1.10
:name VICON
:units
  mass 1.0
  length 0.45
  angle deg
:documentation
   .ast/.asf automatically generated from VICON data using
   VICON BodyBuilder and BodyLanguage model FoxedUp or BRILLIANT.MOD
:root
   order TX TY TZ RX RY RZ
   axis XYZ
   position 0 0 0  
   orientation 0 0 0 
:bonedata
  begin
     id 1 
     name lhipjoint
     direction 0.597014 -0.743513 0.301268 
     length 2.48253 
     axis 0 0 0  XYZ
  end
  begin
     id 2 
     name lfemur
     direction 0.34202 -0.939693 0  
     length 7.51389  
     axis 0 0 20  XYZ
    dof rx ry rz
    limits (-160.0 20.0)
           (-70.0 70.0)
           (-60.0 70.0)
  end
  begin
     id 3 
     name ltibia
     direction 0.34202 -0.939693 0   
     length 7.54147   
     axis 0 0 20   XYZ
    dof rx
    limits (-10.0 170.0)
  end
  begin
     id 4 
     name lfoot
     direction 0.10378 -0.285133 0.952853   
     length 2.2132   
     axis -90 7.62852e-016 20   XYZ
    dof rx rz
    limits (-45.0 90.0)
           (-70.0 20.0)
  end
  begin
     id 5 
     name ltoes
     direction 1.5354e-011 -4.2171e-011 1   
     length 1.10362   
     axis -90 7.62852e-016 20   XYZ
    dof rx
    limits (-90.0 20.0)
  end
  begin
     id 6 
     name rhipjoint
     direction -0.591912 -0.747009 0.302685   
     length 2.47092  
     axis 0 0 0  XYZ 
  end
  begin
     id 7 
     name rfemur
     direction -0.34202 -0.939693 0   
     length 7.69991   
     axis 0 0 -20   XYZ
    dof rx ry rz
    limits (-160.0 20.0)
           (-70.0 70.0)
           (-70.0 60.0)
  end
  begin
     id 8 
     name rtibia
     direction -0.34202 -0.939693 0   
     length 7.40774   
     axis 0 0 -20   XYZ
    dof rx
    limits (-10.0 170.0)
 end
 begin
     id 9 
     name rfoot
     direction -0.0916245 -0.251736 0.963449   
     length 2.08235  
     axis -90 -7.62852e-016 -20   XYZ
    dof rx rz
    limits (-45.0 90.0)
           (-20.0 70.0)
  end
  begin
     id 10 
     name rtoes
     direction -1.53527e-011 -4.21878e-011 1   
     length 1.04369   
     axis -90 -7.62852e-016 -20   XYZ
    dof rx
    limits (-90.0 20.0)
  end
  begin
     id 11 
     name lowerback
     direction -0.0122523 0.991496 -0.12956   
     length 2.10814   
     axis 0 0 0   XYZ
    dof rx ry rz
    limits (-20.0 45.0)
           (-30.0 30.0)
           (-30.0 30.0)
  end
  begin
     id 12 
     name upperback
     direction 0.012378 0.999784 -0.0167122   
     length 2.11728   
     axis 0 0 0   XYZ
    dof rx ry rz
    limits (-20.0 45.0)
           (-30.0 30.0)
           (-30.0 30.0)
  end
  begin
     id 13 
     name thorax
     direction 0.0187236 0.998893 0.0431542   
     length 2.15267   
     axis 0 0 0   XYZ
    dof rx ry rz
    limits (-20.0 45.0)
           (-30.0 30.0)
           (-30.0 30.0)
  end
  begin
     id 14 
     name lowerneck
     direction 0.0165467 0.987304 0.157979   
     length 1.72129   
     axis 0 0 0   XYZ
    dof rx ry rz
    limits (-20.0 45.0)
           (-30.0 30.0)
           (-30.0 30.0)
  end
  begin
     id 15 
     name upperneck
     direction -0.0560236 0.986819 -0.151818   
     length 1.75382   
     axis 0 0 0   XYZ
    dof rx ry rz
    limits (-20.0 45.0)
           (-30.0 30.0)
           (-30.0 30.0)
  end
  begin
     id 16
     name head
     direction -0.0173602 0.99745 -0.0692312  
     length 1.76328  
     axis 0 0 0   XYZ
    dof rx ry rz
    limits (-20.0 45.0)
           (-30.0 30.0)
           (-30.0 30.0)
  end
  begin
     id 17 
     name lclavicle
     direction 0.957734 0.271724 -0.094399  
     length 3.5782  
     axis 0 0 0   XYZ
    dof ry rz
    limits (-20.0 10.0)
           (0.0 20.0)
  end
  begin
     id 18 
     name lhumerus
     direction 1 -4.48963e-011 1.21581e-027   
     length 5.25525   
     axis 180 -30 -90   XYZ
    dof rx ry rz
    limits (-60.0 90.0)
           (-90.0 90.0)
           (-90.0 90.0)
  end
  begin
     id 19
     name lradius
     direction 1 -4.48975e-011 3.71216e-028   
     length 3.35106   
     axis 180 -30 -90   XYZ
    dof rx
    limits (-10.0 170.0)
  end
  begin
     id 20
     name lwrist
     direction 1 -4.48957e-011 4.76535e-027   
     length 1.67553   
     axis -3.27501e-015 90 90   XYZ
    dof ry
    limits (-180.0 0.0)
 end
  begin
     id 21 
     name lhand
     direction 1 -4.49008e-011 9.52727e-027   
     length 0.574153   
     axis -6.08097e-015 90 90   XYZ
    dof rx rz
    limits (-90.0 90.0)
           (-45.0 45.0)
  end
  begin
     id 22 
     name lfingers
     direction 1 -4.48996e-011 1.90562e-026   
     length 0.462897   
     axis -1.21618e-014 90 90   XYZ
    dof rx
    limits (0.0 90.0)
  end
  begin
     id 23
     name lthumb
     direction 0.707107 -6.34908e-011 0.707107   
     length 0.66463   
     axis -90 45 -1.62303e-014   XYZ
    dof rx rz
    limits (-45.0 45.0)
           (-45.0 45.0)
  end
  begin
     id 24 
     name rclavicle
     direction -0.950439 0.29623 -0.0944132   
     length 3.45861  
     axis 0 0 0   XYZ 
    dof ry rz
    limits (-10.0 20.0)
           (-20.0 0.0)
  end
  begin
     id 25 
     name rhumerus
     direction -1 -4.48986e-011 1.25473e-027  
     length 5.33104   
     axis 180 30 90   XYZ
    dof rx ry rz
    limits (-90.0 60.0)
           (-90.0 90.0)
           (-90.0 90.0)
  end
  begin
     id 26 
     name rradius
     direction -1 -4.4894e-011 1.66273e-027   
     length 3.39883   
     axis 180 30 90   XYZ
    dof rx
    limits (-10.0 170.0)
  end
  begin
     id 27 
     name rwrist
     direction -1 -4.48946e-011 4.76572e-027   
     length 1.69941   
     axis -3.27501e-015 -90 -90   XYZ
    dof ry
    limits (-180.0 0.0)
  end
  begin
     id 28
     name rhand
     direction -1 -4.49028e-011 9.52595e-027   
     length 0.913886   
     axis -6.08097e-015 -90 -90   XYZ
    dof rx rz
    limits (-90.0 90.0)
           (-45.0 45.0)
  end
  begin
     id 29
     name rfingers
     direction -1 -4.48945e-011 1.9063e-026   
     length 0.736798   
     axis -1.21618e-014 -90 -90   XYZ
    dof rx
    limits (0.0 90.0)
  end
  begin
     id 30
     name rthumb
     direction -0.707107 -6.34966e-011 0.707107   
     length 1.0579   
     axis -90 -45 1.62303e-014   XYZ
    dof rx rz
    limits (-45.0 45.0)
           (-45.0 45.0)
  end
:hierarchy
  begin
    root lhipjoint rhipjoint lowerback
    lhipjoint lfemur
    lfemur ltibia
    ltibia lfoot
    lfoot ltoes
    rhipjoint rfemur
    rfemur rtibia
    rtibia rfoot
    rfoot rtoes
    lowerback upperback
    upperback thorax
    thorax lowerneck lclavicle rclavicle
    lowerneck upperneck
    upperneck head
    lclavicle lhumerus
    lhumerus lradius
    lradius lwrist
    lwrist lhand lthumb
    lhand lfingers
    rclavicle rhumerus
    rhumerus rradius
    rradius rwrist
    rwrist rhand rthumb
    rhand rfingers
  end

#!OML:ASF F:\VICON\USERDATA\INSTALL\rory3\rory3.ASF
:FULLY-SPECIFIED
:DEGREES
723
root -13.7535 17.2416 -41.9821 -369.095 -5.81492 -359.891
lowerback 13.2722 0.961004 -1.51059
upperback 4.88792 1.07858 0.325035
thorax -2.33797 0.519013 1.02886
lowerneck -15.3717 10.1196 6.18547
upperneck 11.4784 13.8063 -9.14186
head 7.10387 6.18643 -2.37654
rclavicle -2.95847e-015 1.22874e-014
rhumerus 15.3296 -18.9485 -37.4579
rradius 147.308
rwrist -114.242
rhand 58.2822 377.904
rfingers 7.12502
rthumb 74.1398 -1395.6
lclavicle -2.95847e-015 1.22874e-014
lhumerus 6.69597 16.0015 48.6685
lradius 108.817
lwrist 44.4734
lhand -24.3387 27.1237
lfingers 7.12502
lthumb 2.15022 57.0926
rfemur 0.182888 -8.66186 9.22355
rtibia 51.1878
rfoot -22.8386 -5.17414
rtoes -39.3281
lfemur -8.49465 -3.49324 -10.4768
ltibia 48.0378
lfoot -14.5919 -7.80717
ltoes -27.5989
724
root -13.804 17.1898 -42.0019 -368.686 -4.3832 -360.021
lowerback 12.4165 0.591226 -1.64159
upperback 4.98771 0.593172 0.348893
thorax -1.75838 0.272352 1.20656
lowerneck -15.9434 10.0759 5.71989
upperneck 11.0541 13.6805 -8.55935
head 6.97348 6.14875 -2.12468
rclavicle -7.60817e-015 1.17904e-014
rhumerus 14.6722 -12.6262 -39.0778
rradius 147.346
rwrist -107.327
rhand 60.3075 377.916
rfingers 7.12502
rthumb 74.665 -1388.58
lclavicle -7.60817e-015 1.17904e-014
lhumerus 3.90378 10.2639 55.974
lradius 111.69
lwrist 44.9303
lhand -23.4399 27.3001
lfingers 7.12502
lthumb 3.01824 57.2585
rfemur -0.249033 -9.96962 9.22571
rtibia 51.9641
rfoot -25.8525 -4.33552
rtoes -31.2126
lfemur -8.94572 -2.61746 -10.1744
ltibia 47.2862
lfoot -15.5584 -8.36798
ltoes -24.9178
725
root -13.8591 17.1509 -42.0385 -368.383 -3.03589 -361.067
lowerback 11.7116 0.00584377 -0.893868
upperback 4.77915 -0.0780219 0.682919
thorax -1.57299 -0.056523 1.22161
lowerneck -14.4588 9.92887 5.26354
upperneck 9.81404 13.5019 -8.39553
head 6.27193 6.14093 -2.11942
rclavicle 1.02498e-014 -1.20637e-014
rhumerus 13.7302 -5.54257 -41.4364
rradius 146.855
rwrist -100.499
rhand 63.1299 377.358
rfingers 7.12502
rthumb 74.9767 -1378.78
lclavicle 1.02498e-014 -1.20637e-014
lhumerus -0.116167 4.10597 63.1079
lradius 113.502
lwrist 44.9519
lhand -22.0917 27.5561
lfingers 7.12502
lthumb 4.32024 57.492
rfemur -0.392592 -10.938 10.5114
rtibia 52.2854
rfoot -28.7575 -4.09428
rtoes -19.1307
lfemur -9.35348 -1.75467 -8.81452
ltibia 46.5407
lfoot -16.2934 -8.9981
ltoes -23.0514
726
root -13.9193 17.1442 -42.0795 -368.334 -1.84173 -361.619
lowerback 11.4216 -0.282659 -0.780366
upperback 5.13987 -0.443625 0.757072
thorax -1.03019 -0.242916 1.27683
lowerneck -15.5926 9.83141 5.3482
upperneck 9.41798 13.2635 -8.36418
head 6.31942 6.00692 -2.10997
rclavicle -1.03368e-014 3.37934e-015
rhumerus 12.9885 0.0727667 -44.9735
rradius 145.828
rwrist -93.8119
rhand 66.7796 376.289
rfingers 7.12502
rthumb 74.6202 -1366.44
lclavicle -1.03368e-014 3.37934e-015
lhumerus -2.92966 -2.52248 70.0939
lradius 113.791
lwrist 44.826
lhand -21.3609 27.3365
lfingers 7.12502
lthumb 5.02588 57.2569
rfemur -0.394912 -11.2793 11.5128
rtibia 52.4663
rfoot -31.0779 -4.24538
rtoes -7.75754
lfemur -9.4625 -1.68143 -8.06035
ltibia 45.7675
lfoot -16.9808 -9.74435
ltoes -14.1575
727
root -13.9884 17.1621 -42.1191 -368.513 -1.23771 -362.261
lowerback 11.384 -0.397479 -0.807076
upperback 5.60863 -0.594214 1.02752
thorax -0.51363 -0.327637 1.58697
lowerneck -16.7394 9.80504 5.10761
upperneck 9.0136 13.1943 -8.35602
head 6.35655 5.94142 -2.04063
rclavicle 3.2551e-015 -1.81888e-014
rhumerus 12.3959 4.98675 -49.6409
rradius 144.274
rwrist -87.5904
rhand 71.4934 374.183
rfingers 7.12502
rthumb 72.9985 -1353.23
lclavicle 3.2551e-015 -1.81888e-014
lhumerus -5.89007 -9.06632 77.0905
lradius 113.027
lwrist 44.6548
lhand -20.3045 27.2831
lfingers 7.12502
lthumb 6.04581 57.1768
rfemur -0.238857 -10.7812 12.8898
rtibia 52.4934
rfoot -32.5751 -4.78837
rtoes 0.411908
lfemur -9.16159 -2.1106 -7.16029
ltibia 45.0312
lfoot -16.8925 -9.88541
ltoes -17.4278
728
root -14.0403 17.1512 -42.182 -368.196 -0.828862 -361.78
lowerback 10.9022 -0.445156 -1.81604
upperback 5.93913 -0.749413 1.10535
thorax 0.114858 -0.435734 2.24494
lowerneck -17.7058 9.83076 4.34837
upperneck 8.53823 13.3148 -8.2919
head 6.3141 5.96326 -1.86416
rclavicle -1.64308e-014 1.61513e-014
rhumerus 12.0484 9.08882 -55.3918
rradius 142.207
rwrist -81.9256
rhand 77.3428 370.791
rfingers 7.12502
rthumb 69.6391 -1177.64
lclavicle -1.64308e-014 1.61513e-014
lhumerus -8.80694 -15.0915 83.6038
lradius 111.508
lwrist 44.089
lhand -20.0238 27.8742
lfingers 7.12502
lthumb 6.3168 57.76
rfemur -0.967465 -10.2599 12.9736
rtibia 52.7199
rfoot -33.5254 -5.01808
rtoes 5.00433
lfemur -9.53724 -2.86084 -7.63515
ltibia 44.4475
lfoot -16.8358 -9.26843
ltoes -19.6977
729
root -14.0949 17.1687 -42.239 -367.751 -0.898816 -361.591
lowerback 10.1475 -0.260597 -2.47384
upperback 6.30308 -0.547064 1.34934
thorax 0.907537 -0.370289 2.83798
lowerneck -18.4812 9.74703 3.59455
upperneck 8.01039 13.3516 -8.57111
head 6.24548 5.92773 -1.81489
rclavicle -8.64403e-015 1.08462e-014
rhumerus 11.378 10.4678 -62.7697
rradius 140.722
rwrist -77.541
rhand 84.381 345.504
rfingers 7.12502
rthumb 63.0734 -998.492
lclavicle -8.64403e-015 1.08462e-014
lhumerus -11.1291 -21.0323 89.6996
lradius 109.171
lwrist 43.7091
lhand -19.454 27.6994
lfingers 7.12502
lthumb 6.86688 57.568
rfemur -1.83728 -9.17241 13.6075
rtibia 52.8183
rfoot -32.4523 -6.04201
rtoes 3.20801
lfemur -10.0162 -3.31613 -7.73578
ltibia 43.9535
lfoot -16.4057 -8.52804
ltoes -17.0249
